<?xml version="1.0" encoding="utf-8" standalone="no"?><!DOCTYPE svg PUBLIC "-//W3C//DTD SVG 20010904//EN" "http://www.w3.org/TR/2001/REC-SVG-20010904/DTD/svg10.dtd"><svg xmlns="http://www.w3.org/2000/svg" width="1125" height="430" xmlns:xlink="http://www.w3.org/1999/xlink"><source><![CDATA[Title: Platform Flow
DOES NOT EXIST ->DEFINITION: Application Creation/Archive Upload
DEFINITION->SANDBOX: Promote
Note left of SANDBOX: Started or Stopped?\nnot sure
SANDBOX->PUBLISHEDV1: Promote
SANDBOX->PUBLISHEDPATCHED: Promote
SANDBOX->DEFINITION: Demote]]></source><desc>Created with Raphaël 2.1.2</desc><defs><path id="raphael-marker-block" d="M5,0 0,2.5 5,5z" stroke-linecap="round"></path><marker refY="2.5" refX="2.5" orient="auto" markerWidth="5" markerHeight="5" id="raphael-marker-endblock55-obj2240"><use stroke="none" fill="#000" stroke-width="1.0000" transform="rotate(180 2.5 2.5) scale(1,1)" xlink:href="#raphael-marker-block"></use></marker><marker refY="2.5" refX="2.5" orient="auto" markerWidth="5" markerHeight="5" id="raphael-marker-endblock55-obj2243"><use stroke="none" fill="#000" stroke-width="1.0000" transform="rotate(180 2.5 2.5) scale(1,1)" xlink:href="#raphael-marker-block"></use></marker><marker refY="2.5" refX="2.5" orient="auto" markerWidth="5" markerHeight="5" id="raphael-marker-endblock55-obj2249"><use stroke="none" fill="#000" stroke-width="1.0000" transform="rotate(180 2.5 2.5) scale(1,1)" xlink:href="#raphael-marker-block"></use></marker><marker refY="2.5" refX="2.5" orient="auto" markerWidth="5" markerHeight="5" id="raphael-marker-endblock55-obj2252"><use stroke="none" fill="#000" stroke-width="1.0000" transform="rotate(180 2.5 2.5) scale(1,1)" xlink:href="#raphael-marker-block"></use></marker><marker refY="2.5" refX="2.5" orient="auto" markerWidth="5" markerHeight="5" id="raphael-marker-endblock55-obj2255"><use stroke="none" fill="#000" stroke-width="1.0000" transform="rotate(180 2.5 2.5) scale(1,1)" xlink:href="#raphael-marker-block"></use></marker></defs><rect stroke-width="2" style="" stroke="#000000" fill="none" ry="0" rx="0" height="29" width="140" y="10" x="10"></rect><rect style="" stroke="none" fill="#ffffff" ry="0" rx="0" height="19" width="130" y="15" x="15"></rect><text fill="#000000" stroke="none" font-size="16px" font-family="Andale Mono, monospace" text-anchor="middle" y="24.5" x="80" style="text-anchor: middle; font-family: Andale Mono,monospace; font-size: 16px;"><tspan dy="5.5">Platform Flow</tspan></text><rect stroke-width="2" style="" stroke="#000000" fill="none" ry="0" rx="0" height="39" width="160" y="49" x="10"></rect><rect style="" stroke="none" fill="#ffffff" ry="0" rx="0" height="19" width="140" y="59" x="20"></rect><text fill="#000000" stroke="none" font-size="16px" font-family="Andale Mono, monospace" text-anchor="middle" y="68.5" x="90" style="text-anchor: middle; font-family: Andale Mono,monospace; font-size: 16px;"><tspan dy="5.5">DOES NOT EXIST</tspan></text><rect stroke-width="2" style="" stroke="#000000" fill="none" ry="0" rx="0" height="39" width="160" y="371.20000076293945" x="10"></rect><rect style="" stroke="none" fill="#ffffff" ry="0" rx="0" height="19" width="140" y="381.20001220703125" x="20"></rect><text fill="#000000" stroke="none" font-size="16px" font-family="Andale Mono, monospace" text-anchor="middle" y="390.70000076293945" x="90" style="text-anchor: middle; font-family: Andale Mono,monospace; font-size: 16px;"><tspan dy="5.499988555908203">DOES NOT EXIST</tspan></text><path stroke-width="2" d="M90,88L90,371.20000076293945" stroke="#000000" fill="none" style=""></path><rect stroke-width="2" style="" stroke="#000000" fill="none" ry="0" rx="0" height="39" width="120" y="49" x="400"></rect><rect style="" stroke="none" fill="#ffffff" ry="0" rx="0" height="19" width="100" y="59" x="410"></rect><text fill="#000000" stroke="none" font-size="16px" font-family="Andale Mono, monospace" text-anchor="middle" y="68.5" x="460" style="text-anchor: middle; font-family: Andale Mono,monospace; font-size: 16px;"><tspan dy="5.5">DEFINITION</tspan></text><rect stroke-width="2" style="" stroke="#000000" fill="none" ry="0" rx="0" height="39" width="120" y="371.20000076293945" x="400"></rect><rect style="" stroke="none" fill="#ffffff" ry="0" rx="0" height="19" width="100" y="381.20001220703125" x="410"></rect><text fill="#000000" stroke="none" font-size="16px" font-family="Andale Mono, monospace" text-anchor="middle" y="390.70000076293945" x="460" style="text-anchor: middle; font-family: Andale Mono,monospace; font-size: 16px;"><tspan dy="5.499988555908203">DEFINITION</tspan></text><path stroke-width="2" d="M460,88L460,371.20000076293945" stroke="#000000" fill="none" style=""></path><rect stroke-width="2" style="" stroke="#000000" fill="none" ry="0" rx="0" height="39" width="90" y="49" x="655"></rect><rect style="" stroke="none" fill="#ffffff" ry="0" rx="0" height="19" width="70" y="59" x="665"></rect><text fill="#000000" stroke="none" font-size="16px" font-family="Andale Mono, monospace" text-anchor="middle" y="68.5" x="700" style="text-anchor: middle; font-family: Andale Mono,monospace; font-size: 16px;"><tspan dy="5.5">SANDBOX</tspan></text><rect stroke-width="2" style="" stroke="#000000" fill="none" ry="0" rx="0" height="39" width="90" y="371.20000076293945" x="655"></rect><rect style="" stroke="none" fill="#ffffff" ry="0" rx="0" height="19" width="70" y="381.20001220703125" x="665"></rect><text fill="#000000" stroke="none" font-size="16px" font-family="Andale Mono, monospace" text-anchor="middle" y="390.70000076293945" x="700" style="text-anchor: middle; font-family: Andale Mono,monospace; font-size: 16px;"><tspan dy="5.499988555908203">SANDBOX</tspan></text><path stroke-width="2" d="M700,88L700,371.20000076293945" stroke="#000000" fill="none" style=""></path><rect stroke-width="2" style="" stroke="#000000" fill="none" ry="0" rx="0" height="39" width="130" y="49" x="765"></rect><rect style="" stroke="none" fill="#ffffff" ry="0" rx="0" height="19" width="110" y="59" x="775"></rect><text fill="#000000" stroke="none" font-size="16px" font-family="Andale Mono, monospace" text-anchor="middle" y="68.5" x="830" style="text-anchor: middle; font-family: Andale Mono,monospace; font-size: 16px;"><tspan dy="5.5">PUBLISHEDV1</tspan></text><rect stroke-width="2" style="" stroke="#000000" fill="none" ry="0" rx="0" height="39" width="130" y="371.20000076293945" x="765"></rect><rect style="" stroke="none" fill="#ffffff" ry="0" rx="0" height="19" width="110" y="381.20001220703125" x="775"></rect><text fill="#000000" stroke="none" font-size="16px" font-family="Andale Mono, monospace" text-anchor="middle" y="390.70000076293945" x="830" style="text-anchor: middle; font-family: Andale Mono,monospace; font-size: 16px;"><tspan dy="5.499988555908203">PUBLISHEDV1</tspan></text><path stroke-width="2" d="M830,88L830,371.20000076293945" stroke="#000000" fill="none" style=""></path><rect stroke-width="2" style="" stroke="#000000" fill="none" ry="0" rx="0" height="39" width="180" y="49" x="915"></rect><rect style="" stroke="none" fill="#ffffff" ry="0" rx="0" height="19" width="160" y="59" x="925"></rect><text fill="#000000" stroke="none" font-size="16px" font-family="Andale Mono, monospace" text-anchor="middle" y="68.5" x="1005" style="text-anchor: middle; font-family: Andale Mono,monospace; font-size: 16px;"><tspan dy="5.5">PUBLISHEDPATCHED</tspan></text><rect stroke-width="2" style="" stroke="#000000" fill="none" ry="0" rx="0" height="39" width="180" y="371.20000076293945" x="915"></rect><rect style="" stroke="none" fill="#ffffff" ry="0" rx="0" height="19" width="160" y="381.20001220703125" x="925"></rect><text fill="#000000" stroke="none" font-size="16px" font-family="Andale Mono, monospace" text-anchor="middle" y="390.70000076293945" x="1005" style="text-anchor: middle; font-family: Andale Mono,monospace; font-size: 16px;"><tspan dy="5.499988555908203">PUBLISHEDPATCHED</tspan></text><path stroke-width="2" d="M1005,88L1005,371.20000076293945" stroke="#000000" fill="none" style=""></path><rect style="" stroke="none" fill="#ffffff" ry="0" rx="0" height="19" width="350" y="103.5" x="100"></rect><text fill="#000000" stroke="none" font-size="16px" font-family="Andale Mono, monospace" text-anchor="middle" y="113" x="275" style="text-anchor: middle; font-family: Andale Mono,monospace; font-size: 16px;"><tspan dy="5.5">Application Creation/Archive Upload</tspan></text><path stroke-dasharray="0" marker-end="url(#raphael-marker-endblock55-obj2240)" stroke-width="2" d="M90,127C90,127,410.8906526863575,127,454.99744894183095,127" stroke="#000000" fill="none" style=""></path><rect style="" stroke="none" fill="#ffffff" ry="0" rx="0" height="19" width="70" y="142.5" x="545"></rect><text fill="#000000" stroke="none" font-size="16px" font-family="Andale Mono, monospace" text-anchor="middle" y="152" x="580" style="text-anchor: middle; font-family: Andale Mono,monospace; font-size: 16px;"><tspan dy="5.5">Promote</tspan></text><path stroke-dasharray="0" marker-end="url(#raphael-marker-endblock55-obj2243)" stroke-width="2" d="M460,166C460,166,660.5760228633881,166,695.001058037451,166" stroke="#000000" fill="none" style=""></path><rect stroke-width="2" style="" stroke="#000000" fill="none" ry="0" rx="0" height="48.20000076293945" width="200" y="186" x="480"></rect><rect style="" stroke="none" fill="#ffffff" ry="0" rx="0" height="38.19999694824219" width="190" y="191" x="485"></rect><text fill="#000000" stroke="none" font-size="16px" font-family="Andale Mono, monospace" text-anchor="middle" y="210.10000038146973" x="580" style="text-anchor: middle; font-family: Andale Mono,monospace; font-size: 16px;"><tspan dy="-4.100004196166992">Started or Stopped?</tspan><tspan x="580" dy="19.2">not sure</tspan></text><rect style="" stroke="none" fill="#ffffff" ry="0" rx="0" height="19" width="70" y="249.6999969482422" x="730"></rect><text fill="#000000" stroke="none" font-size="16px" font-family="Andale Mono, monospace" text-anchor="middle" y="259.20000076293945" x="765" style="text-anchor: middle; font-family: Andale Mono,monospace; font-size: 16px;"><tspan dy="5.499988555908203">Promote</tspan></text><path stroke-dasharray="0" marker-end="url(#raphael-marker-endblock55-obj2249)" stroke-width="2" d="M700,273.20000076293945C700,273.20000076293945,801.1484843492508,273.20000076293945,825.0033270937274,273.20000076293945" stroke="#000000" fill="none" style=""></path><rect style="" stroke="none" fill="#ffffff" ry="0" rx="0" height="19" width="70" y="288.70001220703125" x="817.5"></rect><text fill="#000000" stroke="none" font-size="16px" font-family="Andale Mono, monospace" text-anchor="middle" y="298.20000076293945" x="852.5" style="text-anchor: middle; font-family: Andale Mono,monospace; font-size: 16px;"><tspan dy="5.499988555908203">Promote</tspan></text><path stroke-dasharray="0" marker-end="url(#raphael-marker-endblock55-obj2252)" stroke-width="2" d="M700,312.20000076293945C700,312.20000076293945,960.4424133896828,312.20000076293945,999.9920181573543,312.20000076293945" stroke="#000000" fill="none" style=""></path><rect style="" stroke="none" fill="#ffffff" ry="0" rx="0" height="19" width="60" y="327.70001220703125" x="550"></rect><text fill="#000000" stroke="none" font-size="16px" font-family="Andale Mono, monospace" text-anchor="middle" y="337.20000076293945" x="580" style="text-anchor: middle; font-family: Andale Mono,monospace; font-size: 16px;"><tspan dy="5.499988555908203">Demote</tspan></text><path stroke-dasharray="0" marker-end="url(#raphael-marker-endblock55-obj2255)" stroke-width="2" d="M700,351.20000076293945C700,351.20000076293945,499.42397713661194,351.20000076293945,464.998941962549,351.20000076293945" stroke="#000000" fill="none" style=""></path></svg>